<svg width="190" height="194" viewBox="0 0 190 194" fill="none" xmlns="http://www.w3.org/2000/svg">
<path d="M168.335 162.951C165.03 168.745 157.086 169.741 152.453 164.94L105.953 116.756L124.537 180.621C126.399 187.019 121.6 193.415 114.936 193.415H76.2853C69.6627 193.415 64.8692 187.093 66.6562 180.716L85.4057 113.808L36.0858 163.349C31.3889 168.067 23.4796 166.964 20.2524 161.141L1.40052 127.126C-1.81222 121.329 1.4005 114.067 7.85107 112.545L72.4906 97.297L7.66084 80.5237C1.28167 78.8732 -1.78535 71.6117 1.47922 65.888L20.7128 32.1664C24.0064 26.3918 31.9133 25.3789 36.5562 30.1368L85.4057 80.1963L66.625 12.6799C64.8523 6.30714 69.6445 0 76.2592 0H114.952C121.611 0 126.41 6.3868 124.557 12.783L105.365 79.017L153.587 30.5792C158.261 25.8843 166.126 26.9496 169.383 32.7188L188.643 66.8402C191.917 72.6385 188.715 79.9563 182.235 81.4878L115.345 97.297L181.405 114.629C187.765 116.297 190.811 123.544 187.554 129.256L168.335 162.951Z" fill="#F22F46"/>
</svg>
