<?xml version="1.0" encoding="UTF-8"?>
<svg xmlns="http://www.w3.org/2000/svg" xmlns:xlink="http://www.w3.org/1999/xlink" version="1.1" viewBox="855 170 100 100" >
  <defs>
    <style>
      .cls-6 {
        fill: #efe6e6;
      }


      .cls-26 {
        fill: url(#linear-gradient-5);
      }

      .cls-27 {
        fill: url(#linear-gradient-6);
      }

      .cls-29 {
        fill: url(#linear-gradient-4);
      }

      .cls-30 {
        fill: url(#linear-gradient-3);
      }

      .cls-31 {
        fill: url(#linear-gradient-2);
      }

      .cls-33 {
        fill: url(#linear-gradient);
      }


      .cls-37 {
        mask: url(#mask-3);
      }

      .cls-38 {
        mask: url(#mask-4);
      }

      .cls-39 {
        mask: url(#mask-1);
      }

      .cls-40 {
        clip-path: url(#clippath-1);
      }

      .cls-41 {
        clip-path: url(#clippath-3);
      }

      .cls-42 {
        clip-path: url(#clippath-4);
      }

      .cls-43 {
        clip-path: url(#clippath-2);
      }

      .cls-44 {
        clip-path: url(#clippath-5);
      }

      .cls-45 {
        fill: #df434c;
      }

      .cls-46 {
        fill: #121c2d;
      }

      .cls-47 {
        fill: #c8b9b7;
      }

      .cls-48 {
        fill: #fff;
      }

      .cls-49 {
        fill: url(#linear-gradient-10);
      }

      .cls-50 {
        fill: url(#linear-gradient-11);
      }

      .cls-51 {
        fill: url(#linear-gradient-12);
      }

      .cls-52, .cls-23, .cls-53, .cls-54 {
        mix-blend-mode: screen;
      }

      .cls-55 {
        opacity: .15;
      }

      .cls-56 {
        fill: #f2be59;
      }

      .cls-15 {
        fill: url(#radial-gradient-8);
      }

      .cls-16 {
        fill: url(#radial-gradient-9);
      }

      .cls-17 {
        fill: url(#radial-gradient-3);
      }

      .cls-18 {
        fill: url(#radial-gradient-2);
      }

      .cls-19 {
        fill: url(#radial-gradient-7);
      }

      .cls-20 {
        fill: url(#radial-gradient-5);
      }

      .cls-21 {
        fill: url(#radial-gradient-6);
      }

      .cls-22 {
        fill: url(#radial-gradient-4);
      }

      .cls-57 {
        fill: #5abaa7;
      }

      .cls-58 {
        clip-path: url(#clippath);
      }

      .cls-59 {
        fill: #f22e46;
      }

      .cls-60 {
        fill: #6ea6c9;
      }

      .cls-3 {
        stroke: #fff;
      }

      .cls-53 {
        opacity: .4;
      }

      .cls-54 {
        opacity: .7;
      }
    </style>
    <clipPath id="clippath">
      <rect class="cls-1" x="-1.5" y="-.5" width="1369" height="768"/>
    </clipPath>
    <clipPath id="clippath-1">
      <rect class="cls-1" x="-1.78" width="1369.57" height="768"/>
    </clipPath>
    <clipPath id="clippath-2">
      <rect class="cls-46" x="-11.81" y="-7.45" width="1392.63" height="784.9"/>
    </clipPath>
    <clipPath id="clippath-3">
      <rect class="cls-1" x="-45.44" y="-426.86" width="1427.26" height="1529.1"/>
    </clipPath>
    <radialGradient id="radial-gradient" cx="515.79" cy="-15544.71" fx="515.79" fy="-15544.71" r="153.36" gradientTransform="translate(209.53 -3909.24) scale(1.33 -.27)" gradientUnits="userSpaceOnUse">
      <stop offset=".38" stop-color="#919191"/>
      <stop offset=".45" stop-color="#aeaeae"/>
      <stop offset=".54" stop-color="#cbcbcb"/>
      <stop offset=".63" stop-color="#e2e2e2"/>
      <stop offset=".73" stop-color="#f2f2f2"/>
      <stop offset=".85" stop-color="#fbfbfb"/>
      <stop offset="1" stop-color="#fff"/>
    </radialGradient>
    <radialGradient id="radial-gradient-2" cx="704.91" cy="-15545.78" fx="704.91" fy="-15545.78" r="153.36" xlink:href="#radial-gradient"/>
    <radialGradient id="radial-gradient-3" cy="-15870.71" fy="-15870.71" r="153.36" xlink:href="#radial-gradient"/>
    <radialGradient id="radial-gradient-4" cx="704.91" cy="-15870.71" fx="704.91" fy="-15870.71" r="153.36" xlink:href="#radial-gradient"/>
    <radialGradient id="radial-gradient-5" cy="-16183.33" fy="-16183.33" r="153.36" xlink:href="#radial-gradient"/>
    <radialGradient id="radial-gradient-6" cx="704.91" cy="-16183.33" fx="704.91" fy="-16183.33" r="153.36" xlink:href="#radial-gradient"/>
    <radialGradient id="radial-gradient-7" cy="-16795.48" fy="-16795.48" r="153.36" xlink:href="#radial-gradient"/>
    <radialGradient id="radial-gradient-8" cx="704.91" cy="-16795.48" fx="704.91" fy="-16795.48" r="153.36" xlink:href="#radial-gradient"/>
    <radialGradient id="radial-gradient-9" cy="-16508.26" fy="-16508.26" r="153.36" xlink:href="#radial-gradient"/>
    <radialGradient id="radial-gradient-10" cx="704.91" cy="-16508.26" fx="704.91" fy="-16508.26" r="153.36" xlink:href="#radial-gradient"/>
    <mask id="mask" x="544.58" y="22.25" width="164.63" height="49.36" maskUnits="userSpaceOnUse">
      <g id="mask-2" data-name="mask">
        <g id="mask1_332_1203">
          <path class="cls-48" d="M709.21,22.25h-164.63v49.36h164.63V22.25Z"/>
        </g>
      </g>
    </mask>
    <mask id="mask-1" x="544.58" y="22.25" width="164.63" height="49.36" maskUnits="userSpaceOnUse">
      <g id="mask-1-2" data-name="mask-1">
        <g id="mask3_332_1203">
          <path class="cls-48" d="M709.21,22.25h-164.63v49.36h164.63V22.25Z"/>
        </g>
      </g>
    </mask>
    <mask id="mask-2" x="544.58" y="22.25" width="164.63" height="49.36" maskUnits="userSpaceOnUse">
      <g id="mask-2-2" data-name="mask-2">
        <g id="mask5_332_1203">
          <path class="cls-48" d="M709.21,22.25h-164.63v49.36h164.63V22.25Z"/>
        </g>
      </g>
    </mask>
    <clipPath id="clippath-4">
      <circle class="cls-1" cx="893.53" cy="210.06" r="27.7"/>
    </clipPath>
    <linearGradient id="linear-gradient" x1="380.46" y1="799.55" x2="337.42" y2="741.67" gradientTransform="translate(543 -575)" gradientUnits="userSpaceOnUse">
      <stop offset="0" stop-color="#cbcbcb"/>
      <stop offset=".09" stop-color="#d3d3d3"/>
      <stop offset=".39" stop-color="#ebebeb"/>
      <stop offset=".67" stop-color="#f9f9f9"/>
      <stop offset=".91" stop-color="#fff"/>
    </linearGradient>
    <linearGradient id="linear-gradient-2" x1="358.93" y1="822.27" x2="315.89" y2="764.39" xlink:href="#linear-gradient"/>
    <linearGradient id="linear-gradient-3" x1="363.07" y1="819.19" x2="320.04" y2="761.31" xlink:href="#linear-gradient"/>
    <linearGradient id="linear-gradient-4" x1="379.53" y1="806.96" x2="336.49" y2="749.08" xlink:href="#linear-gradient"/>
    <linearGradient id="linear-gradient-5" x1="350.92" y1="828.23" x2="307.88" y2="770.35" xlink:href="#linear-gradient"/>
    <linearGradient id="linear-gradient-6" x1="391.69" y1="797.92" x2="348.65" y2="740.04" xlink:href="#linear-gradient"/>
    <clipPath id="clippath-5">
      <circle class="cls-1" cx="1157.53" cy="420.06" r="27.7"/>
    </clipPath>
    <linearGradient id="linear-gradient-7" x1="644.46" y1="1009.55" x2="601.42" y2="951.67" xlink:href="#linear-gradient"/>
    <linearGradient id="linear-gradient-8" x1="622.93" y1="1032.27" x2="579.89" y2="974.39" xlink:href="#linear-gradient"/>
    <linearGradient id="linear-gradient-9" x1="627.07" y1="1029.19" x2="584.04" y2="971.31" xlink:href="#linear-gradient"/>
    <linearGradient id="linear-gradient-10" x1="643.53" y1="1016.96" x2="600.49" y2="959.08" xlink:href="#linear-gradient"/>
    <linearGradient id="linear-gradient-11" x1="614.92" y1="1038.23" x2="571.88" y2="980.35" xlink:href="#linear-gradient"/>
    <linearGradient id="linear-gradient-12" x1="655.69" y1="1007.92" x2="612.65" y2="950.04" xlink:href="#linear-gradient"/>
    <mask id="mask-3" x="288.54" y="332.68" width="411.1" height="132.01" maskUnits="userSpaceOnUse">
      <g id="mask-1-3" data-name="mask-1">
        <g id="mask3_332_1203-2" data-name="mask3_332_1203">
          <path class="cls-48" d="M696.76,332.68l-408.21,9.63,2.89,122.38,408.21-9.63-2.89-122.38Z"/>
        </g>
      </g>
    </mask>
    <mask id="mask-4" x="288.54" y="332.68" width="411.1" height="132.01" maskUnits="userSpaceOnUse">
      <g id="mask-2-3" data-name="mask-2">
        <g id="mask5_332_1203-2" data-name="mask5_332_1203">
          <path class="cls-48" d="M696.76,332.68l-408.21,9.63,2.89,122.38,408.21-9.63-2.89-122.38Z"/>
        </g>
      </g>
    </mask>
  </defs>
   <g xmlns="http://www.w3.org/2000/svg">
    <g class="cls-42">
      <rect class="cls-56" x="860.16" y="179.65" width="66.62" height="63.39"/>
      <g>
        <path class="cls-33" d="M900.07,187.21c0,.15-.09.28-.23.32-.7.24-2.94.91-6.31.91s-5.6-.67-6.3-.91c-.14-.05-.23-.18-.23-.32v-5.91h13.07v5.91Z"/>
        <path class="cls-31" d="M900.07,233.09c0-.15-.09-.28-.23-.32-.7-.24-2.94-.91-6.31-.91s-5.6.67-6.3.91c-.14.05-.23.18-.23.32v5.91h13.07v-5.91Z"/>
        <path class="cls-30" d="M876.94,193.02c.13.07.19.22.17.36-.14.72-.69,3-2.37,5.92-1.68,2.91-3.38,4.52-3.93,5-.11.1-.27.11-.4.04l-5.12-2.96,6.54-11.32,5.12,2.96Z"/>
        <path class="cls-29" d="M916.67,215.96c-.13-.07-.29-.06-.4.04-.56.48-2.26,2.09-3.94,5.01-1.68,2.91-2.23,5.19-2.37,5.91-.03.14.04.29.17.36l5.12,2.96,6.54-11.32-5.12-2.96Z"/>
        <path class="cls-26" d="M870.41,215.96c.13-.07.29-.06.4.04.56.48,2.26,2.09,3.94,5.01,1.68,2.91,2.23,5.19,2.37,5.91.03.14-.04.29-.17.36l-5.12,2.96-6.54-11.32,5.12-2.96Z"/>
        <path class="cls-27" d="M910.14,193.02c-.13.07-.19.22-.17.36.14.72.69,3,2.37,5.92,1.68,2.91,3.38,4.52,3.93,5,.11.1.27.11.4.04l5.12-2.96-6.54-11.32-5.12,2.96Z"/>
      </g>
    </g>
    <g>
      <path class="cls-6" d="M908.33,219.36s.04-.07.12-.18c.04-.06.08-.13.13-.21.05-.08.1-.18.16-.28.12-.21.26-.44.39-.7.13-.26.28-.54.4-.83.06-.14.13-.29.19-.43.06-.14.11-.28.17-.42.05-.14.11-.27.16-.39.04-.13.08-.25.12-.36.07-.22.14-.41.18-.54.04-.13.06-.21.06-.21l1.16.34s-.02.08-.06.22c-.04.14-.11.34-.19.58-.04.12-.08.25-.13.38-.05.13-.11.28-.17.42-.06.15-.12.3-.18.45-.07.15-.14.3-.21.46-.13.31-.29.61-.43.89-.14.28-.29.53-.42.75-.06.11-.12.21-.17.3-.06.09-.1.16-.14.22-.08.12-.12.19-.12.19l-1.02-.66Z"/>
      <path class="cls-6" d="M900.84,225.86s.07-.03.2-.09c.13-.05.3-.15.51-.25.1-.05.22-.11.34-.17.12-.06.24-.14.37-.21.13-.07.26-.15.39-.23.13-.08.26-.17.39-.25.13-.09.27-.17.39-.26.13-.09.25-.18.37-.26.24-.17.46-.34.64-.49.19-.14.34-.27.44-.36.1-.09.16-.14.16-.14l.79.92s-.06.05-.17.15c-.11.1-.27.23-.47.38-.2.16-.43.34-.69.52-.13.09-.26.19-.4.28-.13.1-.28.18-.42.27-.14.09-.28.18-.42.27-.14.08-.28.16-.42.24-.14.08-.27.16-.39.22-.13.07-.25.13-.36.19-.22.11-.41.21-.54.27-.13.06-.21.1-.21.1l-.5-1.1Z"/>
      <path class="cls-6" d="M891.03,227.27s.08,0,.21.03c.14.02.33.05.57.07.23.02.51.04.8.06.29,0,.61.02.92.02.31,0,.63-.02.92-.02.29-.02.57-.04.8-.06.23-.02.43-.05.57-.07.14-.02.21-.03.21-.03l.17,1.2s-.08.01-.23.03c-.15.02-.35.05-.6.07-.25.02-.54.04-.86.07-.31,0-.65.02-.99.03-.34,0-.67-.02-.99-.03-.31-.02-.61-.05-.86-.07-.25-.02-.46-.06-.6-.07-.15-.02-.23-.03-.23-.03l.17-1.2Z"/>
      <path class="cls-6" d="M882.02,223.15s.06.05.16.14c.1.09.25.22.44.36.19.15.4.32.64.49.12.09.24.17.37.26.13.09.26.17.39.26.13.08.26.17.39.25.13.08.27.15.39.23.13.07.25.15.37.21.12.06.23.12.34.17.21.11.38.2.51.25.13.06.2.09.2.09l-.5,1.1s-.08-.03-.21-.1c-.14-.06-.32-.16-.54-.27-.11-.06-.23-.12-.36-.19-.13-.07-.26-.15-.39-.22-.14-.08-.28-.16-.42-.24-.14-.09-.28-.18-.42-.27-.14-.09-.28-.18-.42-.27-.13-.1-.27-.19-.4-.28-.26-.18-.49-.36-.69-.52-.2-.15-.36-.29-.47-.38-.11-.1-.17-.15-.17-.15l.79-.92Z"/>
      <path class="cls-6" d="M876.65,214.81s.02.08.06.21c.04.13.11.32.18.54.04.11.08.23.12.36.05.13.1.26.16.39.05.14.11.28.17.42.06.14.13.28.19.43.12.29.27.57.41.83.13.27.27.5.39.7.06.1.11.2.16.28.05.08.1.15.13.21.07.12.12.18.12.18l-1.02.66s-.05-.07-.12-.19c-.04-.06-.09-.14-.14-.22-.05-.09-.11-.19-.17-.3-.12-.22-.28-.47-.42-.75-.14-.28-.3-.58-.43-.89-.07-.15-.14-.31-.21-.46-.06-.15-.12-.3-.18-.45-.06-.15-.11-.29-.17-.42-.05-.14-.09-.27-.13-.38-.08-.24-.15-.44-.19-.58-.04-.14-.06-.22-.06-.22l1.16-.34Z"/>
      <path class="cls-6" d="M876.65,204.9s-.02.08-.06.21c-.04.13-.1.32-.15.55-.05.23-.12.5-.17.79-.05.29-.12.6-.15.91-.09.62-.14,1.25-.16,1.72-.01.47-.02.79-.02.79h-1.21s0-.34.02-.84c.02-.5.08-1.17.17-1.84.04-.33.11-.66.16-.97.06-.31.13-.59.19-.84.05-.25.12-.45.16-.59.04-.14.06-.22.06-.22l1.16.34Z"/>
      <path class="cls-6" d="M882.02,196.56s-.06.05-.16.14c-.11.09-.25.22-.42.39-.17.16-.37.35-.57.57-.1.11-.21.22-.31.33-.11.11-.21.23-.31.35-.1.12-.21.24-.31.36-.1.12-.19.24-.28.36-.19.23-.34.45-.48.65-.14.19-.25.35-.32.47-.07.12-.12.18-.12.18l-1.02-.66s.05-.07.12-.19c.08-.13.2-.3.35-.5.14-.21.31-.45.51-.69.1-.12.2-.25.3-.38.11-.13.22-.25.33-.38.11-.13.22-.26.33-.38.11-.12.23-.24.33-.35.21-.23.43-.43.61-.61.18-.17.33-.32.45-.41.11-.1.17-.15.17-.15l.79.92Z"/>
      <path class="cls-6" d="M891.03,192.44s-.08,0-.21.03c-.14.02-.33.06-.56.1-.23.04-.5.1-.79.17-.29.06-.59.15-.89.24-.6.17-1.19.39-1.63.57-.22.08-.4.16-.52.22-.13.06-.2.09-.2.09l-.5-1.1s.08-.03.21-.1c.13-.06.32-.15.56-.24.47-.19,1.1-.42,1.74-.61.32-.09.65-.19.95-.25.31-.07.59-.14.84-.18.25-.04.45-.08.6-.11.15-.02.23-.03.23-.03l.17,1.2Z"/>
      <path class="cls-6" d="M900.84,193.85s-.07-.03-.2-.09c-.12-.06-.3-.14-.52-.22-.44-.18-1.03-.39-1.63-.57-.3-.09-.6-.18-.89-.24-.29-.07-.55-.13-.79-.17-.23-.04-.43-.08-.56-.1-.14-.02-.21-.03-.21-.03l.17-1.2s.08,0,.23.03c.14.03.35.06.6.11.25.04.53.11.84.18.31.06.63.16.95.25.65.19,1.28.42,1.74.61.24.09.43.18.56.24.13.06.21.1.21.1l-.5,1.1Z"/>
      <path class="cls-6" d="M908.33,200.35s-.04-.07-.12-.18c-.07-.12-.19-.28-.32-.47-.14-.19-.29-.42-.48-.65-.09-.12-.18-.24-.28-.36-.1-.12-.2-.24-.31-.36-.1-.12-.2-.24-.31-.35-.11-.11-.21-.22-.31-.33-.2-.22-.4-.4-.57-.57-.17-.16-.31-.3-.42-.39-.1-.09-.16-.14-.16-.14l.79-.92s.06.05.17.15c.11.09.27.24.45.41.18.17.4.37.61.61.11.11.22.23.33.35.11.12.22.25.33.38.11.13.22.25.33.38.1.13.2.26.3.38.2.24.37.48.51.69.15.21.27.37.35.5.08.12.12.19.12.19l-1.02.66Z"/>
      <path class="cls-6" d="M911.12,209.85s0-.31-.02-.79c-.02-.47-.07-1.1-.16-1.72-.04-.31-.11-.62-.15-.91-.05-.29-.12-.56-.17-.79-.05-.23-.11-.42-.15-.55-.04-.13-.06-.21-.06-.21l1.16-.34s.02.08.06.22c.04.14.1.34.16.59.05.25.13.53.19.84.05.31.12.64.16.97.1.66.15,1.33.17,1.84.01.5.02.84.02.84h-1.21Z"/>
    </g>
  </g>

</svg>