<svg width="104" height="241" viewBox="0 0 104 241" fill="none" xmlns="http://www.w3.org/2000/svg">
<path d="M98.0264 0.231449C100.822 0.231449 103.089 2.49802 103.089 5.29398V21.7893C103.089 24.5853 100.822 26.8518 98.0264 26.8518L71.0076 26.8518C57.9746 26.8518 51.4581 32.1256 51.4581 41.4176C51.4581 56.2346 76.0203 69.2937 76.0203 90.389C76.0203 104.453 62.9873 116.758 44.1896 119.772C62.9873 122.786 76.0203 134.84 76.0203 149.155C76.0203 170.501 51.458 183.56 51.458 199.131C51.458 209.176 58.2252 213.445 69.5038 213.445H98.0264C100.822 213.445 103.089 215.712 103.089 218.508V235.003C103.089 237.799 100.822 240.066 98.0264 240.066H57.4733C29.4021 240.066 14.1134 223.742 14.1134 204.656C14.1134 180.798 38.6756 166.734 38.6756 150.662C38.6756 143.63 33.6629 135.342 20.8805 135.342H5.64163C2.84567 135.342 0.579101 133.076 0.579102 130.28L0.579103 109.515C0.579104 106.719 2.84567 104.453 5.64163 104.453L20.8805 104.453C33.6629 104.453 38.6756 95.914 38.6756 89.1333C38.6756 73.0607 14.1134 59.2482 14.1134 35.6415C14.1134 16.3041 29.1515 0.231443 57.4733 0.231445L98.0264 0.231449Z" fill="#F22F46"/>
</svg>
