<svg width="172" height="126" viewBox="0 0 172 126" fill="none" xmlns="http://www.w3.org/2000/svg">
<path d="M5 44.4662C2.23858 44.4662 0 42.2276 0 39.4662V5C0 2.23858 2.23858 0 5 0H166.316C169.078 0 171.316 2.23858 171.316 5V39.4662C171.316 42.2276 169.078 44.4662 166.316 44.4662H5ZM5 125.745C2.23858 125.745 0 123.506 0 120.745V86.2784C0 83.517 2.23858 81.2784 5 81.2784H166.316C169.078 81.2784 171.316 83.517 171.316 86.2784V120.745C171.316 123.506 169.078 125.745 166.316 125.745H5Z" fill="#F22F46"/>
</svg>
