<svg width="114" height="268" viewBox="0 0 114 268" fill="none" xmlns="http://www.w3.org/2000/svg">
<path d="M113.39 44.3039C113.39 68.7723 93.3619 88.6078 68.656 88.6078C43.9501 88.6078 23.9219 68.7723 23.9219 44.3039C23.9219 19.8355 43.9501 0 68.656 0C93.3619 0 113.39 19.8355 113.39 44.3039Z" fill="#F22F46"/>
<path d="M25.9962 118.717C22.6354 118.717 19.7866 121.19 19.3134 124.517L0.0684958 259.843C-0.509608 263.909 2.6453 267.544 6.75131 267.544H39.2897C42.0672 267.544 44.5612 265.842 45.5745 263.256L98.5963 127.93C100.331 123.502 97.0664 118.717 92.3114 118.717H25.9962Z" fill="#F22F46"/>
</svg>
